<svg xmlns="http://www.w3.org/2000/svg" xmlns:xlink="http://www.w3.org/1999/xlink" viewBox="430 610 670 305" preserveAspectRatio="xMidYMid meet" version="1.0"><defs><g/><clipPath id="fb84da50b6"><path d="M 1055.679688 794.550781 L 1090.179688 794.550781 L 1090.179688 829.050781 L 1055.679688 829.050781 Z M 1055.679688 794.550781 " clip-rule="nonzero"/></clipPath><clipPath id="9bc97d2d61"><rect x="0" width="623" y="0" height="268"/></clipPath></defs><g clip-path="url(#fb84da50b6)"><path fill="#ff6b35" d="M 1083.925781 798.476562 C 1082.746094 800.222656 1081.804688 802.128906 1081.148438 804.15625 C 1080.472656 806.246094 1080.097656 808.457031 1080.074219 810.746094 L 1073.667969 810.746094 L 1073.667969 794.550781 C 1077.554688 794.710938 1081.113281 796.15625 1083.925781 798.476562 Z M 1073.667969 829.019531 L 1073.667969 812.164062 L 1080.101562 812.164062 C 1080.214844 814.328125 1080.644531 816.414062 1081.339844 818.382812 C 1082.117188 820.582031 1083.234375 822.632812 1084.632812 824.484375 C 1081.722656 827.160156 1077.890625 828.851562 1073.667969 829.019531 Z M 1061.285156 824.484375 C 1062.679688 822.632812 1063.796875 820.582031 1064.574219 818.382812 C 1065.273438 816.414062 1065.699219 814.328125 1065.8125 812.164062 L 1072.25 812.164062 L 1072.25 829.019531 C 1068.027344 828.851562 1064.195312 827.160156 1061.285156 824.484375 Z M 1072.25 794.550781 L 1072.25 810.746094 L 1065.84375 810.746094 C 1065.816406 808.457031 1065.441406 806.246094 1064.765625 804.15625 C 1064.109375 802.128906 1063.167969 800.222656 1061.988281 798.476562 C 1064.800781 796.15625 1068.359375 794.710938 1072.25 794.550781 Z M 1064.394531 812.164062 L 1055.714844 812.164062 L 1055.714844 812.253906 C 1055.71875 812.308594 1055.71875 812.367188 1055.722656 812.421875 L 1055.722656 812.472656 C 1055.726562 812.53125 1055.726562 812.59375 1055.730469 812.65625 L 1055.730469 812.683594 C 1055.734375 812.75 1055.738281 812.816406 1055.742188 812.882812 L 1055.746094 812.914062 C 1055.75 812.976562 1055.753906 813.039062 1055.757812 813.101562 L 1055.761719 813.128906 C 1055.765625 813.195312 1055.769531 813.257812 1055.777344 813.324219 L 1055.777344 813.34375 C 1056.128906 817.238281 1057.769531 820.761719 1060.277344 823.476562 C 1061.527344 821.789062 1062.53125 819.917969 1063.242188 817.914062 C 1063.886719 816.09375 1064.28125 814.164062 1064.394531 812.164062 Z M 1055.742188 810.746094 L 1064.425781 810.746094 C 1064.402344 808.601562 1064.050781 806.535156 1063.421875 804.589844 C 1062.828125 802.75 1061.984375 801.019531 1060.929688 799.425781 C 1060.871094 799.480469 1060.816406 799.535156 1060.761719 799.589844 C 1057.886719 802.46875 1056.019531 806.355469 1055.746094 810.675781 L 1055.742188 810.683594 Z M 1081.488281 810.746094 L 1090.175781 810.746094 L 1090.171875 810.683594 L 1090.171875 810.675781 C 1089.898438 806.355469 1088.03125 802.46875 1085.152344 799.589844 C 1085.097656 799.535156 1085.042969 799.480469 1084.988281 799.425781 C 1083.933594 801.019531 1083.089844 802.75 1082.492188 804.589844 C 1081.863281 806.535156 1081.515625 808.601562 1081.488281 810.746094 Z M 1090.203125 812.164062 L 1081.519531 812.164062 C 1081.632812 814.164062 1082.03125 816.09375 1082.675781 817.914062 C 1083.382812 819.917969 1084.386719 821.789062 1085.640625 823.476562 C 1088.144531 820.761719 1089.789062 817.238281 1090.136719 813.34375 L 1090.140625 813.324219 C 1090.144531 813.257812 1090.148438 813.195312 1090.15625 813.128906 L 1090.15625 813.101562 C 1090.160156 813.039062 1090.164062 812.976562 1090.171875 812.914062 L 1090.171875 812.882812 C 1090.175781 812.816406 1090.179688 812.75 1090.183594 812.683594 L 1090.183594 812.65625 C 1090.1875 812.59375 1090.191406 812.53125 1090.191406 812.472656 L 1090.195312 812.421875 C 1090.195312 812.367188 1090.199219 812.308594 1090.199219 812.253906 L 1090.203125 812.203125 L 1090.203125 812.164062 " fill-opacity="1" fill-rule="evenodd"/></g><g fill="#ff6b35" fill-opacity="1"><g transform="translate(536.889359, 905.391358)"><g><path d="M 6.984375 -24.375 L 6.984375 -14.171875 L 22.265625 -14.171875 L 22.265625 -11.109375 L 6.984375 -11.109375 L 6.984375 0 L 3.265625 0 L 3.265625 -27.40625 L 22.734375 -27.40625 L 22.734375 -24.375 Z M 6.984375 -24.375 "/></g></g></g><g fill="#ff6b35" fill-opacity="1"><g transform="translate(559.228705, 905.391358)"><g><path d="M 2.671875 -25.515625 L 2.671875 -28.859375 L 6.171875 -28.859375 L 6.171875 -25.515625 Z M 2.671875 0 L 2.671875 -21.046875 L 6.171875 -21.046875 L 6.171875 0 Z M 2.671875 0 "/></g></g></g><g fill="#ff6b35" fill-opacity="1"><g transform="translate(566.086462, 905.391358)"><g><path d="M 16.046875 0 L 16.046875 -13.34375 C 16.046875 -14.726562 15.910156 -15.800781 15.640625 -16.5625 C 15.367188 -17.332031 14.929688 -17.882812 14.328125 -18.21875 C 13.734375 -18.5625 12.859375 -18.734375 11.703125 -18.734375 C 10.015625 -18.734375 8.6875 -18.15625 7.71875 -17 C 6.75 -15.84375 6.265625 -14.238281 6.265625 -12.1875 L 6.265625 0 L 2.765625 0 L 2.765625 -16.546875 C 2.765625 -18.992188 2.722656 -20.492188 2.640625 -21.046875 L 5.953125 -21.046875 C 5.960938 -20.972656 5.972656 -20.796875 5.984375 -20.515625 C 6.003906 -20.234375 6.019531 -19.90625 6.03125 -19.53125 C 6.050781 -19.164062 6.078125 -18.46875 6.109375 -17.4375 L 6.171875 -17.4375 C 6.972656 -18.894531 7.898438 -19.925781 8.953125 -20.53125 C 10.015625 -21.132812 11.328125 -21.4375 12.890625 -21.4375 C 15.203125 -21.4375 16.890625 -20.859375 17.953125 -19.703125 C 19.023438 -18.554688 19.5625 -16.660156 19.5625 -14.015625 L 19.5625 0 Z M 16.046875 0 "/></g></g></g><g fill="#ff6b35" fill-opacity="1"><g transform="translate(586.247494, 905.391358)"><g><path d="M 15.96875 -3.390625 C 15.320312 -2.035156 14.460938 -1.066406 13.390625 -0.484375 C 12.316406 0.0976562 10.988281 0.390625 9.40625 0.390625 C 6.75 0.390625 4.796875 -0.503906 3.546875 -2.296875 C 2.296875 -4.085938 1.671875 -6.796875 1.671875 -10.421875 C 1.671875 -17.765625 4.25 -21.4375 9.40625 -21.4375 C 11 -21.4375 12.328125 -21.144531 13.390625 -20.5625 C 14.460938 -19.976562 15.320312 -19.050781 15.96875 -17.78125 L 16 -17.78125 L 15.96875 -20.125 L 15.96875 -28.859375 L 19.46875 -28.859375 L 19.46875 -4.34375 C 19.46875 -2.144531 19.503906 -0.695312 19.578125 0 L 16.234375 0 C 16.203125 -0.207031 16.160156 -0.6875 16.109375 -1.4375 C 16.066406 -2.1875 16.046875 -2.835938 16.046875 -3.390625 Z M 5.34375 -10.546875 C 5.34375 -7.597656 5.734375 -5.488281 6.515625 -4.21875 C 7.296875 -2.945312 8.5625 -2.3125 10.3125 -2.3125 C 12.289062 -2.3125 13.726562 -3 14.625 -4.375 C 15.519531 -5.75 15.96875 -7.882812 15.96875 -10.78125 C 15.96875 -13.5625 15.519531 -15.597656 14.625 -16.890625 C 13.726562 -18.191406 12.300781 -18.84375 10.34375 -18.84375 C 8.582031 -18.84375 7.304688 -18.191406 6.515625 -16.890625 C 5.734375 -15.585938 5.34375 -13.472656 5.34375 -10.546875 Z M 5.34375 -10.546875 "/></g></g></g><g fill="#ff6b35" fill-opacity="1"><g transform="translate(606.408525, 905.391358)"><g/></g></g><g fill="#ff6b35" fill-opacity="1"><g transform="translate(615.483495, 905.391358)"><g><path d="M 3.71875 8.265625 C 2.757812 8.265625 1.953125 8.191406 1.296875 8.046875 L 1.296875 5.421875 C 1.796875 5.503906 2.34375 5.546875 2.9375 5.546875 C 5.113281 5.546875 6.835938 3.941406 8.109375 0.734375 L 8.4375 -0.09375 L 0.09375 -21.046875 L 3.828125 -21.046875 L 8.265625 -9.40625 C 8.328125 -9.226562 8.40625 -9.007812 8.5 -8.75 C 8.59375 -8.5 8.882812 -7.65625 9.375 -6.21875 C 9.863281 -4.78125 10.128906 -3.976562 10.171875 -3.8125 L 11.53125 -7.640625 L 16.140625 -21.046875 L 19.84375 -21.046875 L 11.75 0 C 10.875 2.238281 10.0625 3.90625 9.3125 5 C 8.5625 6.101562 7.726562 6.921875 6.8125 7.453125 C 5.894531 7.992188 4.863281 8.265625 3.71875 8.265625 Z M 3.71875 8.265625 "/></g></g></g><g fill="#ff6b35" fill-opacity="1"><g transform="translate(633.40786, 905.391358)"><g><path d="M 20.484375 -10.546875 C 20.484375 -6.859375 19.671875 -4.113281 18.046875 -2.3125 C 16.421875 -0.507812 14.066406 0.390625 10.984375 0.390625 C 7.910156 0.390625 5.585938 -0.546875 4.015625 -2.421875 C 2.453125 -4.296875 1.671875 -7.003906 1.671875 -10.546875 C 1.671875 -17.804688 4.816406 -21.4375 11.109375 -21.4375 C 14.316406 -21.4375 16.679688 -20.550781 18.203125 -18.78125 C 19.722656 -17.007812 20.484375 -14.265625 20.484375 -10.546875 Z M 16.796875 -10.546875 C 16.796875 -13.441406 16.363281 -15.546875 15.5 -16.859375 C 14.644531 -18.179688 13.195312 -18.84375 11.15625 -18.84375 C 9.113281 -18.84375 7.632812 -18.171875 6.71875 -16.828125 C 5.800781 -15.484375 5.34375 -13.390625 5.34375 -10.546875 C 5.34375 -7.765625 5.789062 -5.675781 6.6875 -4.28125 C 7.59375 -2.894531 9.015625 -2.203125 10.953125 -2.203125 C 13.046875 -2.203125 14.539062 -2.875 15.4375 -4.21875 C 16.34375 -5.570312 16.796875 -7.679688 16.796875 -10.546875 Z M 16.796875 -10.546875 "/></g></g></g><g fill="#ff6b35" fill-opacity="1"><g transform="translate(653.568891, 905.391358)"><g><path d="M 6.109375 -21.046875 L 6.109375 -7.703125 C 6.109375 -6.316406 6.242188 -5.238281 6.515625 -4.46875 C 6.785156 -3.707031 7.21875 -3.15625 7.8125 -2.8125 C 8.414062 -2.476562 9.289062 -2.3125 10.4375 -2.3125 C 12.125 -2.3125 13.453125 -2.890625 14.421875 -4.046875 C 15.398438 -5.203125 15.890625 -6.800781 15.890625 -8.84375 L 15.890625 -21.046875 L 19.390625 -21.046875 L 19.390625 -4.5 C 19.390625 -2.039062 19.425781 -0.539062 19.5 0 L 16.203125 0 C 16.191406 -0.0625 16.175781 -0.234375 16.15625 -0.515625 C 16.144531 -0.804688 16.128906 -1.132812 16.109375 -1.5 C 16.085938 -1.875 16.066406 -2.570312 16.046875 -3.59375 L 15.984375 -3.59375 C 15.179688 -2.144531 14.25 -1.117188 13.1875 -0.515625 C 12.132812 0.0859375 10.820312 0.390625 9.25 0.390625 C 6.945312 0.390625 5.257812 -0.179688 4.1875 -1.328125 C 3.125 -2.472656 2.59375 -4.367188 2.59375 -7.015625 L 2.59375 -21.046875 Z M 6.109375 -21.046875 "/></g></g></g><g fill="#ff6b35" fill-opacity="1"><g transform="translate(673.729923, 905.391358)"><g><path d="M 2.765625 0 L 2.765625 -16.140625 C 2.765625 -17.617188 2.722656 -19.253906 2.640625 -21.046875 L 5.953125 -21.046875 C 6.054688 -18.660156 6.109375 -17.226562 6.109375 -16.75 L 6.1875 -16.75 C 6.738281 -18.550781 7.378906 -19.78125 8.109375 -20.4375 C 8.835938 -21.101562 9.863281 -21.4375 11.1875 -21.4375 C 11.644531 -21.4375 12.117188 -21.367188 12.609375 -21.234375 L 12.609375 -18.03125 C 12.140625 -18.15625 11.515625 -18.21875 10.734375 -18.21875 C 9.285156 -18.21875 8.175781 -17.59375 7.40625 -16.34375 C 6.644531 -15.09375 6.265625 -13.300781 6.265625 -10.96875 L 6.265625 0 Z M 2.765625 0 "/></g></g></g><g fill="#ff6b35" fill-opacity="1"><g transform="translate(685.00265, 905.391358)"><g/></g></g><g fill="#ff6b35" fill-opacity="1"><g transform="translate(694.07762, 905.391358)"><g><path d="M 10.78125 -0.15625 C 9.625 0.15625 8.441406 0.3125 7.234375 0.3125 C 4.429688 0.3125 3.03125 -1.273438 3.03125 -4.453125 L 3.03125 -18.5 L 0.609375 -18.5 L 0.609375 -21.046875 L 3.171875 -21.046875 L 4.203125 -25.75 L 6.53125 -25.75 L 6.53125 -21.046875 L 10.421875 -21.046875 L 10.421875 -18.5 L 6.53125 -18.5 L 6.53125 -5.21875 C 6.53125 -4.195312 6.695312 -3.484375 7.03125 -3.078125 C 7.363281 -2.671875 7.9375 -2.46875 8.75 -2.46875 C 9.21875 -2.46875 9.894531 -2.554688 10.78125 -2.734375 Z M 10.78125 -0.15625 "/></g></g></g><g fill="#ff6b35" fill-opacity="1"><g transform="translate(703.152589, 905.391358)"><g><path d="M 5.375 -9.78125 C 5.375 -7.375 5.867188 -5.515625 6.859375 -4.203125 C 7.859375 -2.890625 9.316406 -2.234375 11.234375 -2.234375 C 12.753906 -2.234375 13.972656 -2.535156 14.890625 -3.140625 C 15.804688 -3.753906 16.425781 -4.53125 16.75 -5.46875 L 19.8125 -4.59375 C 18.5625 -1.269531 15.703125 0.390625 11.234375 0.390625 C 8.128906 0.390625 5.757812 -0.535156 4.125 -2.390625 C 2.5 -4.242188 1.6875 -7 1.6875 -10.65625 C 1.6875 -14.132812 2.5 -16.800781 4.125 -18.65625 C 5.757812 -20.507812 8.085938 -21.4375 11.109375 -21.4375 C 17.285156 -21.4375 20.375 -17.707031 20.375 -10.25 L 20.375 -9.78125 Z M 16.765625 -12.46875 C 16.566406 -14.6875 16 -16.300781 15.0625 -17.3125 C 14.132812 -18.332031 12.796875 -18.84375 11.046875 -18.84375 C 9.347656 -18.84375 8 -18.273438 7 -17.140625 C 6.007812 -16.003906 5.476562 -14.445312 5.40625 -12.46875 Z M 16.765625 -12.46875 "/></g></g></g><g fill="#ff6b35" fill-opacity="1"><g transform="translate(723.313621, 905.391358)"><g><path d="M 8.046875 0.390625 C 5.929688 0.390625 4.34375 -0.164062 3.28125 -1.28125 C 2.21875 -2.394531 1.6875 -3.925781 1.6875 -5.875 C 1.6875 -8.050781 2.398438 -9.722656 3.828125 -10.890625 C 5.265625 -12.054688 7.582031 -12.675781 10.78125 -12.75 L 15.5 -12.828125 L 15.5 -13.984375 C 15.5 -15.691406 15.132812 -16.914062 14.40625 -17.65625 C 13.6875 -18.394531 12.546875 -18.765625 10.984375 -18.765625 C 9.421875 -18.765625 8.28125 -18.5 7.5625 -17.96875 C 6.851562 -17.4375 6.425781 -16.585938 6.28125 -15.421875 L 2.625 -15.75 C 3.21875 -19.539062 6.03125 -21.4375 11.0625 -21.4375 C 13.707031 -21.4375 15.695312 -20.828125 17.03125 -19.609375 C 18.363281 -18.398438 19.03125 -16.648438 19.03125 -14.359375 L 19.03125 -5.296875 C 19.03125 -4.253906 19.164062 -3.46875 19.4375 -2.9375 C 19.71875 -2.414062 20.238281 -2.15625 21 -2.15625 C 21.34375 -2.15625 21.726562 -2.203125 22.15625 -2.296875 L 22.15625 -0.109375 C 21.269531 0.0859375 20.367188 0.1875 19.453125 0.1875 C 18.148438 0.1875 17.203125 -0.148438 16.609375 -0.828125 C 16.023438 -1.503906 15.691406 -2.570312 15.609375 -4.03125 L 15.5 -4.03125 C 14.601562 -2.414062 13.5625 -1.273438 12.375 -0.609375 C 11.1875 0.0546875 9.742188 0.390625 8.046875 0.390625 Z M 8.84375 -2.234375 C 10.132812 -2.234375 11.273438 -2.523438 12.265625 -3.109375 C 13.265625 -3.691406 14.050781 -4.492188 14.625 -5.515625 C 15.207031 -6.535156 15.5 -7.582031 15.5 -8.65625 L 15.5 -10.390625 L 11.671875 -10.3125 C 10.023438 -10.28125 8.773438 -10.109375 7.921875 -9.796875 C 7.078125 -9.484375 6.425781 -9.003906 5.96875 -8.359375 C 5.519531 -7.710938 5.296875 -6.863281 5.296875 -5.8125 C 5.296875 -4.675781 5.601562 -3.796875 6.21875 -3.171875 C 6.832031 -2.546875 7.707031 -2.234375 8.84375 -2.234375 Z M 8.84375 -2.234375 "/></g></g></g><g fill="#ff6b35" fill-opacity="1"><g transform="translate(743.474653, 905.391358)"><g><path d="M 14.9375 0 L 14.9375 -13.34375 C 14.9375 -15.375 14.65625 -16.78125 14.09375 -17.5625 C 13.539062 -18.34375 12.535156 -18.734375 11.078125 -18.734375 C 9.585938 -18.734375 8.410156 -18.160156 7.546875 -17.015625 C 6.679688 -15.878906 6.25 -14.269531 6.25 -12.1875 L 6.25 0 L 2.765625 0 L 2.765625 -16.546875 C 2.765625 -18.992188 2.722656 -20.492188 2.640625 -21.046875 L 5.953125 -21.046875 C 5.960938 -20.972656 5.972656 -20.796875 5.984375 -20.515625 C 6.003906 -20.234375 6.019531 -19.90625 6.03125 -19.53125 C 6.050781 -19.164062 6.078125 -18.46875 6.109375 -17.4375 L 6.171875 -17.4375 C 6.921875 -18.9375 7.78125 -19.976562 8.75 -20.5625 C 9.71875 -21.144531 10.90625 -21.4375 12.3125 -21.4375 C 13.90625 -21.4375 15.164062 -21.117188 16.09375 -20.484375 C 17.019531 -19.847656 17.664062 -18.832031 18.03125 -17.4375 L 18.09375 -17.4375 C 18.8125 -18.851562 19.6875 -19.875 20.71875 -20.5 C 21.75 -21.125 23 -21.4375 24.46875 -21.4375 C 26.59375 -21.4375 28.132812 -20.859375 29.09375 -19.703125 C 30.0625 -18.546875 30.546875 -16.648438 30.546875 -14.015625 L 30.546875 0 L 27.09375 0 L 27.09375 -13.34375 C 27.09375 -15.375 26.8125 -16.78125 26.25 -17.5625 C 25.695312 -18.34375 24.691406 -18.734375 23.234375 -18.734375 C 21.703125 -18.734375 20.507812 -18.164062 19.65625 -17.03125 C 18.8125 -15.894531 18.390625 -14.28125 18.390625 -12.1875 L 18.390625 0 Z M 14.9375 0 "/></g></g></g><g fill="#ff6b35" fill-opacity="1"><g transform="translate(774.663393, 905.391358)"><g/></g></g><g fill="#ff6b35" fill-opacity="1"><g transform="translate(783.738351, 905.391358)"><g><path d="M 1.765625 -9.03125 L 1.765625 -12.140625 L 11.5 -12.140625 L 11.5 -9.03125 Z M 1.765625 -9.03125 "/></g></g></g><g fill="#ff6b35" fill-opacity="1"><g transform="translate(795.011101, 905.391358)"><g/></g></g><g fill="#ff6b35" fill-opacity="1"><g transform="translate(804.086059, 905.391358)"><g><path d="M 2 -13.828125 C 2 -18.273438 3.191406 -21.71875 5.578125 -24.15625 C 7.960938 -26.59375 11.316406 -27.8125 15.640625 -27.8125 C 18.671875 -27.8125 21.128906 -27.296875 23.015625 -26.265625 C 24.910156 -25.242188 26.375 -23.609375 27.40625 -21.359375 L 23.859375 -20.296875 C 23.078125 -21.859375 22.003906 -22.992188 20.640625 -23.703125 C 19.273438 -24.421875 17.570312 -24.78125 15.53125 -24.78125 C 12.375 -24.78125 9.957031 -23.820312 8.28125 -21.90625 C 6.613281 -19.988281 5.78125 -17.296875 5.78125 -13.828125 C 5.78125 -10.367188 6.664062 -7.632812 8.4375 -5.625 C 10.21875 -3.625 12.675781 -2.625 15.8125 -2.625 C 17.601562 -2.625 19.269531 -2.894531 20.8125 -3.4375 C 22.363281 -3.988281 23.617188 -4.726562 24.578125 -5.65625 L 24.578125 -10.59375 L 16.390625 -10.59375 L 16.390625 -13.703125 L 28 -13.703125 L 28 -4.265625 C 26.550781 -2.785156 24.769531 -1.640625 22.65625 -0.828125 C 20.550781 -0.015625 18.269531 0.390625 15.8125 0.390625 C 12.945312 0.390625 10.476562 -0.175781 8.40625 -1.3125 C 6.332031 -2.457031 4.742188 -4.101562 3.640625 -6.25 C 2.546875 -8.394531 2 -10.921875 2 -13.828125 Z M 2 -13.828125 "/></g></g></g><g fill="#ff6b35" fill-opacity="1"><g transform="translate(833.077031, 905.391358)"><g><path d="M 5.375 -9.78125 C 5.375 -7.375 5.867188 -5.515625 6.859375 -4.203125 C 7.859375 -2.890625 9.316406 -2.234375 11.234375 -2.234375 C 12.753906 -2.234375 13.972656 -2.535156 14.890625 -3.140625 C 15.804688 -3.753906 16.425781 -4.53125 16.75 -5.46875 L 19.8125 -4.59375 C 18.5625 -1.269531 15.703125 0.390625 11.234375 0.390625 C 8.128906 0.390625 5.757812 -0.535156 4.125 -2.390625 C 2.5 -4.242188 1.6875 -7 1.6875 -10.65625 C 1.6875 -14.132812 2.5 -16.800781 4.125 -18.65625 C 5.757812 -20.507812 8.085938 -21.4375 11.109375 -21.4375 C 17.285156 -21.4375 20.375 -17.707031 20.375 -10.25 L 20.375 -9.78125 Z M 16.765625 -12.46875 C 16.566406 -14.6875 16 -16.300781 15.0625 -17.3125 C 14.132812 -18.332031 12.796875 -18.84375 11.046875 -18.84375 C 9.347656 -18.84375 8 -18.273438 7 -17.140625 C 6.007812 -16.003906 5.476562 -14.445312 5.40625 -12.46875 Z M 16.765625 -12.46875 "/></g></g></g><g fill="#ff6b35" fill-opacity="1"><g transform="translate(853.238086, 905.391358)"><g><path d="M 10.78125 -0.15625 C 9.625 0.15625 8.441406 0.3125 7.234375 0.3125 C 4.429688 0.3125 3.03125 -1.273438 3.03125 -4.453125 L 3.03125 -18.5 L 0.609375 -18.5 L 0.609375 -21.046875 L 3.171875 -21.046875 L 4.203125 -25.75 L 6.53125 -25.75 L 6.53125 -21.046875 L 10.421875 -21.046875 L 10.421875 -18.5 L 6.53125 -18.5 L 6.53125 -5.21875 C 6.53125 -4.195312 6.695312 -3.484375 7.03125 -3.078125 C 7.363281 -2.671875 7.9375 -2.46875 8.75 -2.46875 C 9.21875 -2.46875 9.894531 -2.554688 10.78125 -2.734375 Z M 10.78125 -0.15625 "/></g></g></g><g fill="#ff6b35" fill-opacity="1"><g transform="translate(862.313044, 905.391358)"><g/></g></g><g fill="#ff6b35" fill-opacity="1"><g transform="translate(871.388002, 905.391358)"><g><path d="M 7.015625 -18.5 L 7.015625 0 L 3.515625 0 L 3.515625 -18.5 L 0.5625 -18.5 L 0.5625 -21.046875 L 3.515625 -21.046875 L 3.515625 -23.421875 C 3.515625 -25.335938 3.9375 -26.71875 4.78125 -27.5625 C 5.625 -28.40625 6.914062 -28.828125 8.65625 -28.828125 C 9.625 -28.828125 10.445312 -28.75 11.125 -28.59375 L 11.125 -25.921875 C 10.539062 -26.023438 10.019531 -26.078125 9.5625 -26.078125 C 8.664062 -26.078125 8.015625 -25.847656 7.609375 -25.390625 C 7.210938 -24.941406 7.015625 -24.117188 7.015625 -22.921875 L 7.015625 -21.046875 L 11.125 -21.046875 L 11.125 -18.5 Z M 7.015625 -18.5 "/></g></g></g><g fill="#ff6b35" fill-opacity="1"><g transform="translate(880.462983, 905.391358)"><g><path d="M 20.484375 -10.546875 C 20.484375 -6.859375 19.671875 -4.113281 18.046875 -2.3125 C 16.421875 -0.507812 14.066406 0.390625 10.984375 0.390625 C 7.910156 0.390625 5.585938 -0.546875 4.015625 -2.421875 C 2.453125 -4.296875 1.671875 -7.003906 1.671875 -10.546875 C 1.671875 -17.804688 4.816406 -21.4375 11.109375 -21.4375 C 14.316406 -21.4375 16.679688 -20.550781 18.203125 -18.78125 C 19.722656 -17.007812 20.484375 -14.265625 20.484375 -10.546875 Z M 16.796875 -10.546875 C 16.796875 -13.441406 16.363281 -15.546875 15.5 -16.859375 C 14.644531 -18.179688 13.195312 -18.84375 11.15625 -18.84375 C 9.113281 -18.84375 7.632812 -18.171875 6.71875 -16.828125 C 5.800781 -15.484375 5.34375 -13.390625 5.34375 -10.546875 C 5.34375 -7.765625 5.789062 -5.675781 6.6875 -4.28125 C 7.59375 -2.894531 9.015625 -2.203125 10.953125 -2.203125 C 13.046875 -2.203125 14.539062 -2.875 15.4375 -4.21875 C 16.34375 -5.570312 16.796875 -7.679688 16.796875 -10.546875 Z M 16.796875 -10.546875 "/></g></g></g><g fill="#ff6b35" fill-opacity="1"><g transform="translate(900.624015, 905.391358)"><g><path d="M 6.109375 -21.046875 L 6.109375 -7.703125 C 6.109375 -6.316406 6.242188 -5.238281 6.515625 -4.46875 C 6.785156 -3.707031 7.21875 -3.15625 7.8125 -2.8125 C 8.414062 -2.476562 9.289062 -2.3125 10.4375 -2.3125 C 12.125 -2.3125 13.453125 -2.890625 14.421875 -4.046875 C 15.398438 -5.203125 15.890625 -6.800781 15.890625 -8.84375 L 15.890625 -21.046875 L 19.390625 -21.046875 L 19.390625 -4.5 C 19.390625 -2.039062 19.425781 -0.539062 19.5 0 L 16.203125 0 C 16.191406 -0.0625 16.175781 -0.234375 16.15625 -0.515625 C 16.144531 -0.804688 16.128906 -1.132812 16.109375 -1.5 C 16.085938 -1.875 16.066406 -2.570312 16.046875 -3.59375 L 15.984375 -3.59375 C 15.179688 -2.144531 14.25 -1.117188 13.1875 -0.515625 C 12.132812 0.0859375 10.820312 0.390625 9.25 0.390625 C 6.945312 0.390625 5.257812 -0.179688 4.1875 -1.328125 C 3.125 -2.472656 2.59375 -4.367188 2.59375 -7.015625 L 2.59375 -21.046875 Z M 6.109375 -21.046875 "/></g></g></g><g fill="#ff6b35" fill-opacity="1"><g transform="translate(920.785047, 905.391358)"><g><path d="M 16.046875 0 L 16.046875 -13.34375 C 16.046875 -14.726562 15.910156 -15.800781 15.640625 -16.5625 C 15.367188 -17.332031 14.929688 -17.882812 14.328125 -18.21875 C 13.734375 -18.5625 12.859375 -18.734375 11.703125 -18.734375 C 10.015625 -18.734375 8.6875 -18.15625 7.71875 -17 C 6.75 -15.84375 6.265625 -14.238281 6.265625 -12.1875 L 6.265625 0 L 2.765625 0 L 2.765625 -16.546875 C 2.765625 -18.992188 2.722656 -20.492188 2.640625 -21.046875 L 5.953125 -21.046875 C 5.960938 -20.972656 5.972656 -20.796875 5.984375 -20.515625 C 6.003906 -20.234375 6.019531 -19.90625 6.03125 -19.53125 C 6.050781 -19.164062 6.078125 -18.46875 6.109375 -17.4375 L 6.171875 -17.4375 C 6.972656 -18.894531 7.898438 -19.925781 8.953125 -20.53125 C 10.015625 -21.132812 11.328125 -21.4375 12.890625 -21.4375 C 15.203125 -21.4375 16.890625 -20.859375 17.953125 -19.703125 C 19.023438 -18.554688 19.5625 -16.660156 19.5625 -14.015625 L 19.5625 0 Z M 16.046875 0 "/></g></g></g><g fill="#ff6b35" fill-opacity="1"><g transform="translate(940.946056, 905.391358)"><g><path d="M 15.96875 -3.390625 C 15.320312 -2.035156 14.460938 -1.066406 13.390625 -0.484375 C 12.316406 0.0976562 10.988281 0.390625 9.40625 0.390625 C 6.75 0.390625 4.796875 -0.503906 3.546875 -2.296875 C 2.296875 -4.085938 1.671875 -6.796875 1.671875 -10.421875 C 1.671875 -17.765625 4.25 -21.4375 9.40625 -21.4375 C 11 -21.4375 12.328125 -21.144531 13.390625 -20.5625 C 14.460938 -19.976562 15.320312 -19.050781 15.96875 -17.78125 L 16 -17.78125 L 15.96875 -20.125 L 15.96875 -28.859375 L 19.46875 -28.859375 L 19.46875 -4.34375 C 19.46875 -2.144531 19.503906 -0.695312 19.578125 0 L 16.234375 0 C 16.203125 -0.207031 16.160156 -0.6875 16.109375 -1.4375 C 16.066406 -2.1875 16.046875 -2.835938 16.046875 -3.390625 Z M 5.34375 -10.546875 C 5.34375 -7.597656 5.734375 -5.488281 6.515625 -4.21875 C 7.296875 -2.945312 8.5625 -2.3125 10.3125 -2.3125 C 12.289062 -2.3125 13.726562 -3 14.625 -4.375 C 15.519531 -5.75 15.96875 -7.882812 15.96875 -10.78125 C 15.96875 -13.5625 15.519531 -15.597656 14.625 -16.890625 C 13.726562 -18.191406 12.300781 -18.84375 10.34375 -18.84375 C 8.582031 -18.84375 7.304688 -18.191406 6.515625 -16.890625 C 5.734375 -15.585938 5.34375 -13.472656 5.34375 -10.546875 Z M 5.34375 -10.546875 "/></g></g></g><g transform="matrix(1, 0, 0, 1, 439, 625)"><g clip-path="url(#9bc97d2d61)"><g fill="#ff6b35" fill-opacity="1"><g transform="translate(0.262321, 202.861341)"><g><path d="M 62.453125 -49.140625 L 51.328125 -49.140625 L 51.328125 0 L 10.65625 0 L 10.65625 -150.34375 L 59.796875 -150.34375 C 77.066406 -150.34375 89.894531 -146.382812 98.28125 -138.46875 C 106.675781 -130.5625 110.875 -117.570312 110.875 -99.5 C 110.875 -81.425781 106.921875 -68.515625 99.015625 -60.765625 C 91.109375 -53.015625 78.921875 -49.140625 62.453125 -49.140625 Z M 67.046875 -81.828125 C 68.503906 -84.566406 69.234375 -89.488281 69.234375 -96.59375 C 69.234375 -103.695312 68.425781 -108.703125 66.8125 -111.609375 C 65.195312 -114.515625 61.972656 -115.96875 57.140625 -115.96875 L 51.328125 -115.96875 L 51.328125 -77.71875 L 58.109375 -77.71875 C 62.617188 -77.71875 65.597656 -79.085938 67.046875 -81.828125 Z M 67.046875 -81.828125 "/></g></g></g><g fill="#ff6b35" fill-opacity="1"><g transform="translate(112.594177, 202.861341)"><g><path d="M 54.234375 0 L 13.078125 0 L 13.078125 -150.34375 L 54.234375 -150.34375 Z M 54.234375 0 "/></g></g></g><g fill="#ff6b35" fill-opacity="1"><g transform="translate(179.896456, 202.861341)"><g><path d="M 47.9375 -73.71875 C 47.9375 -59.4375 49.347656 -49.269531 52.171875 -43.21875 C 54.992188 -37.164062 59.632812 -34.140625 66.09375 -34.140625 C 72.550781 -34.140625 81.671875 -35.671875 93.453125 -38.734375 L 99.75 -4.59375 C 87 0.0820312 74.164062 2.421875 61.25 2.421875 C 41.882812 2.421875 27.800781 -3.992188 19 -16.828125 C 10.207031 -29.660156 5.8125 -48.785156 5.8125 -74.203125 C 5.8125 -99.617188 10.410156 -119.066406 19.609375 -132.546875 C 28.804688 -146.023438 43.816406 -152.765625 64.640625 -152.765625 C 76.898438 -152.765625 88.601562 -150.179688 99.75 -145.015625 L 93.203125 -107.484375 C 80.617188 -111.679688 71.820312 -113.78125 66.8125 -113.78125 C 59.71875 -113.78125 54.796875 -110.671875 52.046875 -104.453125 C 49.304688 -98.242188 47.9375 -88 47.9375 -73.71875 Z M 47.9375 -73.71875 "/></g></g></g><g fill="#ff6b35" fill-opacity="1"><g transform="translate(279.15523, 202.861341)"><g><path d="M 117.171875 0 L 71.421875 0 L 53.265625 -56.65625 L 50.84375 -56.65625 L 50.84375 0 L 10.65625 0 L 10.65625 -150.34375 L 50.84375 -150.34375 L 50.84375 -87.390625 L 53.265625 -87.390625 L 75.046875 -150.34375 L 119.59375 -150.34375 L 90.296875 -72.625 Z M 117.171875 0 "/></g></g></g><g fill="#ff6b35" fill-opacity="1"><g transform="translate(396.571057, 202.861341)"><g><path d="M 92 0 L 10.65625 0 L 10.65625 -150.34375 L 94.421875 -150.34375 L 92 -113.296875 L 52.046875 -113.296875 L 52.046875 -90.78125 L 86.671875 -90.78125 L 86.671875 -58.828125 L 52.046875 -58.828125 L 52.046875 -33.890625 L 94.421875 -33.890625 Z M 92 0 "/></g></g></g><g fill="#ff6b35" fill-opacity="1"><g transform="translate(494.377235, 202.861341)"><g><path d="M 122.5 -78.4375 C 122.5 -26.144531 101.84375 0 60.53125 0 L 10.65625 0 L 10.65625 -150.34375 L 61.484375 -150.34375 C 83.597656 -150.34375 99.296875 -144.164062 108.578125 -131.8125 C 117.859375 -119.46875 122.5 -101.675781 122.5 -78.4375 Z M 59.796875 -34.859375 C 68.347656 -34.859375 73.875 -37.882812 76.375 -43.9375 C 78.882812 -49.988281 80.140625 -60.15625 80.140625 -74.4375 C 80.140625 -88.726562 78.804688 -98.859375 76.140625 -104.828125 C 73.472656 -110.796875 67.785156 -113.78125 59.078125 -113.78125 L 51.8125 -113.78125 L 51.8125 -34.859375 Z M 59.796875 -34.859375 "/></g></g></g></g></g></svg>