<svg xmlns="http://www.w3.org/2000/svg" viewBox="0 0 32 32" width="32" height="32">
  <rect width="32" height="32" rx="8" fill="#f97316"/>
  <g transform="translate(3.5, 3.5) scale(0.725)" fill="#ffffff" fill-rule="evenodd">
    <path d="M 17.5 0 C 19.85 0.1 21.95 0.95 23.6 2.35 C 22.9 3.4 22.3 4.55 21.9 5.8 C 21.5 7.05 21.25 8.4 21.24 9.78 L 17.35 9.78 L 17.35 0 Z"/>
    <path d="M 17.35 20.85 L 17.35 10.98 L 21.25 10.98 C 21.32 12.28 21.58 13.53 22 14.72 C 22.47 16.04 23.15 17.28 24.0 18.4 C 22.23 20.01 19.9 20.95 17.35 21.06 Z"/>
    <path d="M 11.82 18.4 C 12.66 17.28 13.34 16.04 13.81 14.72 C 14.23 13.53 14.49 12.28 14.56 10.98 L 17.35 10.98 L 17.35 21.06 C 14.8 20.95 12.47 20.01 10.72 18.4 Z"/>
    <path d="M 17.35 0 L 17.35 9.78 L 14.58 9.78 C 14.56 8.4 14.33 7.05 13.92 5.8 C 13.53 4.55 12.93 3.4 12.22 2.35 C 13.87 0.95 15.97 0.1 17.35 0 Z"/>
    <path d="M 14.24 10.98 L 8.97 10.98 C 9.18 14.03 10.17 16.8 11.7 18.44 C 12.46 17.42 13.07 16.29 13.5 15.08 C 13.89 13.98 14.13 12.82 14.24 10.98 Z"/>
    <path d="M 14.29 9.78 L 8.97 9.78 C 9.14 6.14 10.28 3.43 11.66 1.58 C 12.31 2.46 12.82 3.5 13.18 4.6 C 13.56 5.77 13.81 7.37 14.29 9.78 Z"/>
    <path d="M 20.46 9.78 L 25.75 9.78 C 25.58 6.14 24.45 3.43 23.07 1.58 C 22.42 2.46 21.91 3.5 21.55 4.6 C 21.17 5.77 20.93 7.37 20.46 9.78 Z"/>
    <path d="M 20.51 10.98 L 25.78 10.98 C 25.58 14.03 24.59 16.8 23.07 18.44 C 22.3 17.42 21.7 16.29 21.27 15.08 C 20.88 13.98 20.63 12.82 20.51 10.98 Z"/>
  </g>
</svg>
